<?xml version="1.0" standalone="no"?>
<svg xmlns:xlink="http://www.w3.org/1999/xlink" id="wave" style="transform:rotate(0deg); transition: 0.3s" viewBox="0 0 1440 190" version="1.1" xmlns="http://www.w3.org/2000/svg">
    <defs>
        <linearGradient id="sw-gradient-0" x1="0" x2="0" y1="1" y2="0">
            <stop stop-color="rgba(40, 40, 40, 1)" offset="0%" />
            <stop stop-color="rgba(31, 31, 31, 1)" offset="100%" />
        </linearGradient>
    </defs>
    <path style="transform:translate(0, 0px); opacity:1" fill="url(#sw-gradient-0)" d="M0,152L34.3,148.8C68.6,146,137,139,206,123.5C274.3,108,343,82,411,76C480,70,549,82,617,95C685.7,108,754,120,823,123.5C891.4,127,960,120,1029,126.7C1097.1,133,1166,152,1234,155.2C1302.9,158,1371,146,1440,120.3C1508.6,95,1577,57,1646,47.5C1714.3,38,1783,57,1851,60.2C1920,63,1989,51,2057,50.7C2125.7,51,2194,63,2263,85.5C2331.4,108,2400,139,2469,145.7C2537.1,152,2606,133,2674,129.8C2742.9,127,2811,139,2880,142.5C2948.6,146,3017,139,3086,123.5C3154.3,108,3223,82,3291,85.5C3360,89,3429,120,3497,110.8C3565.7,101,3634,51,3703,53.8C3771.4,57,3840,114,3909,114C3977.1,114,4046,57,4114,28.5C4182.9,0,4251,0,4320,12.7C4388.6,25,4457,51,4526,79.2C4594.3,108,4663,139,4731,142.5C4800,146,4869,120,4903,107.7L4937.1,95L4937.1,190L4902.9,190C4868.6,190,4800,190,4731,190C4662.9,190,4594,190,4526,190C4457.1,190,4389,190,4320,190C4251.4,190,4183,190,4114,190C4045.7,190,3977,190,3909,190C3840,190,3771,190,3703,190C3634.3,190,3566,190,3497,190C3428.6,190,3360,190,3291,190C3222.9,190,3154,190,3086,190C3017.1,190,2949,190,2880,190C2811.4,190,2743,190,2674,190C2605.7,190,2537,190,2469,190C2400,190,2331,190,2263,190C2194.3,190,2126,190,2057,190C1988.6,190,1920,190,1851,190C1782.9,190,1714,190,1646,190C1577.1,190,1509,190,1440,190C1371.4,190,1303,190,1234,190C1165.7,190,1097,190,1029,190C960,190,891,190,823,190C754.3,190,686,190,617,190C548.6,190,480,190,411,190C342.9,190,274,190,206,190C137.1,190,69,190,34,190L0,190Z" />
    <defs>
        <linearGradient id="sw-gradient-1" x1="0" x2="0" y1="1" y2="0">
            <stop stop-color="rgba(13, 13, 13, 1)" offset="0%" />
            <stop stop-color="rgba(31, 31, 31, 1)" offset="100%" />
        </linearGradient>
    </defs>
    <path style="transform:translate(0, 50px); opacity:0.9" fill="url(#sw-gradient-1)" d="M0,152L34.3,145.7C68.6,139,137,127,206,120.3C274.3,114,343,114,411,117.2C480,120,549,127,617,117.2C685.7,108,754,82,823,63.3C891.4,44,960,32,1029,31.7C1097.1,32,1166,44,1234,69.7C1302.9,95,1371,133,1440,129.8C1508.6,127,1577,82,1646,72.8C1714.3,63,1783,89,1851,98.2C1920,108,1989,101,2057,82.3C2125.7,63,2194,32,2263,25.3C2331.4,19,2400,38,2469,63.3C2537.1,89,2606,120,2674,114C2742.9,108,2811,63,2880,47.5C2948.6,32,3017,44,3086,57C3154.3,70,3223,82,3291,82.3C3360,82,3429,70,3497,53.8C3565.7,38,3634,19,3703,22.2C3771.4,25,3840,51,3909,63.3C3977.1,76,4046,76,4114,85.5C4182.9,95,4251,114,4320,117.2C4388.6,120,4457,108,4526,91.8C4594.3,76,4663,57,4731,57C4800,57,4869,76,4903,85.5L4937.1,95L4937.1,190L4902.9,190C4868.6,190,4800,190,4731,190C4662.9,190,4594,190,4526,190C4457.1,190,4389,190,4320,190C4251.4,190,4183,190,4114,190C4045.7,190,3977,190,3909,190C3840,190,3771,190,3703,190C3634.3,190,3566,190,3497,190C3428.6,190,3360,190,3291,190C3222.9,190,3154,190,3086,190C3017.1,190,2949,190,2880,190C2811.4,190,2743,190,2674,190C2605.7,190,2537,190,2469,190C2400,190,2331,190,2263,190C2194.3,190,2126,190,2057,190C1988.6,190,1920,190,1851,190C1782.9,190,1714,190,1646,190C1577.1,190,1509,190,1440,190C1371.4,190,1303,190,1234,190C1165.7,190,1097,190,1029,190C960,190,891,190,823,190C754.3,190,686,190,617,190C548.6,190,480,190,411,190C342.9,190,274,190,206,190C137.1,190,69,190,34,190L0,190Z" />
</svg>